<svg xmlns="http://www.w3.org/2000/svg" data-name="Layer 1" viewBox="0 0 100 125" x="0px" y="0px"><path d="M38.78,50.09h0a25.58,25.58,0,0,0-9.28-3.35,2.47,2.47,0,0,0-2.18.83,2.49,2.49,0,0,0-.53,2.27A7.17,7.17,0,0,0,28.61,53a1,1,0,0,0,.6.29c.13,0,2.58.26,5.86.26.91,0,1.88,0,2.88-.06a1.82,1.82,0,0,0,.83-3.4Zm-9,1.31a5.3,5.3,0,0,1-1.11-2,.55.55,0,0,1,.12-.51.57.57,0,0,1,.48-.18,23.13,23.13,0,0,1,8.2,2.91A65.2,65.2,0,0,1,29.77,51.4Zm8,.37h0l.48-.84Z"/><path d="M61.22,50.09h0a1.82,1.82,0,0,0,.83,3.4c1,0,2,.06,2.88.06,3.28,0,5.73-.24,5.86-.26a1,1,0,0,0,.6-.29,7.17,7.17,0,0,0,1.82-3.16,2.49,2.49,0,0,0-.53-2.27,2.47,2.47,0,0,0-2.18-.83A25.58,25.58,0,0,0,61.22,50.09Zm10-1.25a.55.55,0,0,1,.12.51,5.3,5.3,0,0,1-1.11,2,65.2,65.2,0,0,1-7.69.17,23.13,23.13,0,0,1,8.2-2.91A.57.57,0,0,1,71.22,48.84Z"/><path d="M78.06,40.77a3.31,3.31,0,0,0-3.31-3.31H70.63a1,1,0,0,0-1,1V40c-.2-.66-.46-1.42-.75-2.21-1.24-3.28-2.64-5.48-4.17-6.56a.91.91,0,0,0-.42-.17A130.07,130.07,0,0,0,50.55,30h-1.1a130.07,130.07,0,0,0-13.77,1.13.91.91,0,0,0-.42.17c-1.53,1.08-2.93,3.28-4.17,6.56-.29.79-.55,1.55-.75,2.21V38.43a1,1,0,0,0-1-1H25.25a3.33,3.33,0,0,0,0,6.65h.61c-.55.39-1,.77-1.44,1.1a4.37,4.37,0,0,0-1.6,3.39V61.54h0v6a2.48,2.48,0,0,0,2.47,2.47h5.35a2.47,2.47,0,0,0,2.47-2.47V64.78H66.87v2.81a2.47,2.47,0,0,0,2.47,2.47h5.35a2.48,2.48,0,0,0,2.47-2.47v-6h0V48.6a4.37,4.37,0,0,0-1.6-3.39c-.41-.33-.89-.71-1.44-1.1h.61A3.34,3.34,0,0,0,78.06,40.77ZM71.6,41.92V39.4h3.15a1.38,1.38,0,0,1,1.38,1.37,1.4,1.4,0,0,1-1.4,1.4H71.56A1,1,0,0,0,71.6,41.92ZM36.2,33A123.77,123.77,0,0,1,50,31.88,123.77,123.77,0,0,1,63.8,33c2,1.6,3.57,6,4.3,8.6H31.9C32.63,39,34.19,34.56,36.2,33ZM23.87,40.77a1.38,1.38,0,0,1,1.38-1.37H28.4v2.52a1,1,0,0,0,0,.25H25.27A1.4,1.4,0,0,1,23.87,40.77ZM31.2,67.59a.54.54,0,0,1-.54.53H25.31a.53.53,0,0,1-.53-.53V64.51a3.24,3.24,0,0,0,1.29.27H31.2Zm18.36-4.75h-15V61.47a4.12,4.12,0,0,1,4.11-4.11H61.29a4.12,4.12,0,0,1,4.11,4.11v1.37H49.56Zm25.13,5.28H69.34a.54.54,0,0,1-.54-.53V64.78h5.13a3.24,3.24,0,0,0,1.29-.27v3.08A.53.53,0,0,1,74.69,68.12Zm.53-19.52V61.54h0a1.29,1.29,0,0,1-1.29,1.29H67.34V61.47a6.06,6.06,0,0,0-6.05-6H38.71a6.06,6.06,0,0,0-6.05,6v1.37H26.07a1.29,1.29,0,0,1-1.29-1.29h0V48.6a2.41,2.41,0,0,1,.89-1.89,22,22,0,0,1,5.18-3.21h38.3a22,22,0,0,1,5.18,3.21A2.41,2.41,0,0,1,75.22,48.6Z"/><text x="0" y="115" fill="#000000" font-size="5px" font-weight="bold" font-family="'Helvetica Neue', Helvetica, Arial-Unicode, Arial, Sans-serif">Created by Yon ten</text><text x="0" y="120" fill="#000000" font-size="5px" font-weight="bold" font-family="'Helvetica Neue', Helvetica, Arial-Unicode, Arial, Sans-serif">from the Noun Project</text></svg>